<svg xmlns="http://www.w3.org/2000/svg" version="1.1" xmlns:xlink="http://www.w3.org/1999/xlink" xmlns:svgjs="http://svgjs.com/svgjs" width="512" height="512" x="0" y="0" viewBox="0 0 176 176" style="enable-background:new 0 0 512 512" xml:space="preserve" class=""><g><g xmlns="http://www.w3.org/2000/svg" id="Layer_2" data-name="Layer 2"><g id="wikipedia"><rect id="background" fill="#333333" height="176" rx="24" width="176" data-original="#333333" class=""></rect><path id="icon" d="m140.21 49h-23.06a2.8 2.8 0 0 0 -2.79 2.79v3.51a2.8 2.8 0 0 0 2.79 2.78h5.85s-17.67 46.33-17.67 46.33l-9.53-21.41 12.55-24.91h2.65a2.79 2.79 0 0 0 2.79-2.79v-3.5a2.8 2.8 0 0 0 -2.79-2.8h-17.14a2.8 2.8 0 0 0 -2.79 2.79v3.51a2.8 2.8 0 0 0 2.79 2.78h2.39c-.1.35-5.77 12.92-5.77 12.92s-5.38-12-5.73-12.92h.6a2.79 2.79 0 0 0 2.79-2.78v-3.52a2.8 2.8 0 0 0 -2.79-2.78h-18.17a2.8 2.8 0 0 0 -2.79 2.79v3.51a2.79 2.79 0 0 0 2.79 2.78h2.43c.47.71 12.49 27 13.4 29.26l-7.82 17.16c-4.5-10.5-15.27-35.76-18.93-45.5-.13-.35-.23-.64-.3-.89h5a2.79 2.79 0 0 0 2.79-2.78v-3.55a2.8 2.8 0 0 0 -2.75-2.78h-25.21a2.8 2.8 0 0 0 -2.79 2.78v3.51a2.8 2.8 0 0 0 2.79 2.78h4.39c.24.28 10 24.09 14.78 35.23 4.39 10.29 8.93 20.93 11.87 28.55v.05c.51 1.26 2.08 5.11 5.5 5.11 2.94 0 4.77-2.87 5.9-5v-.07c2.37-4.82 6.64-14.33 10-21.88 4.4 10.61 7.48 17.91 9.17 21.72.56 1.27 2.26 5.14 5.66 5.14 3.31 0 5.08-3.71 5.66-4.93l.06-.13c6-14.56 23.45-58.56 23.62-59a.42.42 0 0 0 0-.1 9.28 9.28 0 0 1 2.46-4 4.47 4.47 0 0 1 1.16-.7h4.11a2.8 2.8 0 0 0 2.87-2.78v-3.5a2.8 2.8 0 0 0 -2.79-2.78z" fill="#ffffff" data-original="#ffffff" class=""></path></g></g></g></svg>